<svg width="25" height="25" viewBox="0 0 25 25" fill="none" xmlns="http://www.w3.org/2000/svg">
<path d="M12.3713 4.56836C7.73955 4.56836 3.98047 8.32744 3.98047 12.9592C3.98047 17.5909 7.73955 21.35 12.3713 21.35C17.003 21.35 20.7621 17.5909 20.7621 12.9592C20.7621 8.32744 17.003 4.56836 12.3713 4.56836ZM11.5238 19.6131C8.22622 19.1935 5.65863 16.3742 5.65863 12.9592C5.65863 12.4473 5.72576 11.9439 5.83484 11.4656L9.84564 15.4764V16.3155C9.84564 17.2385 10.6008 17.9936 11.5238 17.9936V19.6131ZM17.3135 17.4902C17.0953 16.8105 16.4744 16.3155 15.7192 16.3155H14.8801V13.7982C14.8801 13.3368 14.5025 12.9592 14.041 12.9592H9.00656V11.281H10.6847C11.1462 11.281 11.5238 10.9034 11.5238 10.4419V8.76376H13.202C14.125 8.76376 14.8801 8.00859 14.8801 7.0856V6.74158C17.3386 7.73169 19.0839 10.1482 19.0839 12.9592C19.0839 14.7045 18.4043 16.2987 17.3135 17.4902Z" fill="#0083FC"/>
</svg>
