<svg width="18" height="18" viewBox="0 0 18 18" fill="none" xmlns="http://www.w3.org/2000/svg">
<path d="M9.37127 0.568359C4.73955 0.568359 0.980469 4.32744 0.980469 8.95916C0.980469 13.5909 4.73955 17.35 9.37127 17.35C14.003 17.35 17.7621 13.5909 17.7621 8.95916C17.7621 4.32744 14.003 0.568359 9.37127 0.568359ZM8.5238 15.6131C5.22622 15.1935 2.65863 12.3742 2.65863 8.95916C2.65863 8.44732 2.72576 7.94388 2.83484 7.4656L6.84564 11.4764V12.3155C6.84564 13.2385 7.60081 13.9936 8.5238 13.9936V15.6131ZM14.3135 13.4902C14.0953 12.8105 13.4744 12.3155 12.7192 12.3155H11.8801V9.79824C11.8801 9.33675 11.5025 8.95916 11.041 8.95916H6.00656V7.281H7.68472C8.14622 7.281 8.5238 6.90342 8.5238 6.44192V4.76376H10.202C11.125 4.76376 11.8801 4.00859 11.8801 3.0856V2.74158C14.3386 3.73169 16.0839 6.14824 16.0839 8.95916C16.0839 10.7045 15.4043 12.2987 14.3135 13.4902Z" fill="#0083FC"/>
</svg>
